<svg width="260" height="260" viewBox="0 0 260 260" fill="none" xmlns="http://www.w3.org/2000/svg">
<rect width="260" height="260" fill="#222222"/>
<path d="M36.576 183V173.064C39.264 173.064 41.424 172.296 43.056 170.76C44.688 169.224 46.032 167.208 47.088 164.712C48.24 162.216 49.344 159.528 50.4 156.648L78.48 79.608H88.56L119.232 158.088C119.808 159.528 120.576 161.736 121.536 164.712C122.496 167.592 123.072 170.136 123.264 172.344C124.896 172.152 126.432 172.056 127.872 172.056C129.408 171.96 130.656 171.912 131.616 171.912V183H92.88V173.496C96.816 173.496 99.024 172.296 99.504 169.896C99.984 167.4 99.552 164.376 98.208 160.824L95.328 152.904L64.08 153.48L61.776 160.248C61.296 161.496 60.576 163.368 59.616 165.864C58.752 168.264 57.936 170.28 57.168 171.912C58.704 171.72 60.528 171.624 62.64 171.624C64.848 171.528 66.432 171.48 67.392 171.48V183H36.576ZM67.68 142.68H91.728L85.104 124.68C83.856 121.224 82.752 117.768 81.792 114.312C80.832 110.76 80.112 107.64 79.632 104.952H79.488C79.104 106.584 78.528 109.032 77.76 112.296C76.992 115.56 75.792 119.448 74.16 123.96L67.68 142.68ZM139.388 173.496C141.596 173.4 143.42 173.112 144.86 172.632C146.396 172.152 147.548 171.048 148.316 169.32C149.18 167.592 149.612 164.808 149.612 160.968V105.816C149.612 103.224 149.66 100.728 149.756 98.328C149.948 95.928 150.092 94.104 150.188 92.856C148.652 92.952 146.732 93.048 144.428 93.144C142.124 93.144 140.444 93.192 139.388 93.288V82.2C146.204 82.104 153.02 82.056 159.836 82.056C166.652 82.056 173.468 82.008 180.284 81.912C188.732 81.816 196.076 82.92 202.316 85.224C208.652 87.528 213.5 91.08 216.859 95.88C220.316 100.68 221.948 106.92 221.756 114.6C221.66 119.688 220.076 124.632 217.004 129.432C214.028 134.232 209.516 138.216 203.468 141.384C197.516 144.552 189.98 146.28 180.86 146.568C176.924 146.664 173.468 146.664 170.492 146.568V159.24C170.492 161.928 170.444 164.472 170.348 166.872C170.252 169.272 170.108 171.096 169.916 172.344C170.972 172.248 172.316 172.2 173.948 172.2C175.58 172.104 177.164 172.056 178.7 172.056C180.332 171.96 181.484 171.912 182.156 171.912V183H139.388V173.496ZM170.492 135.768C172.508 136.056 174.668 136.2 176.972 136.2C184.94 136.2 190.652 134.232 194.108 130.296C197.66 126.264 199.436 120.6 199.436 113.304C199.436 108.504 198.764 104.664 197.42 101.784C196.172 98.904 194.54 96.792 192.524 95.448C190.508 94.008 188.396 93.096 186.188 92.712C183.98 92.232 181.964 91.992 180.14 91.992C177.164 91.992 174.812 92.616 173.084 93.864C171.356 95.112 170.492 98.28 170.492 103.368V135.768Z" fill="white"/>
</svg>
