<?xml version="1.0" standalone="no"?>
<!DOCTYPE svg PUBLIC "-//W3C//DTD SVG 20010904//EN"
 "http://www.w3.org/TR/2001/REC-SVG-20010904/DTD/svg10.dtd">
<svg version="1.0" xmlns="http://www.w3.org/2000/svg"
 width="700.000000pt" height="700.000000pt" viewBox="0 0 700.000000 700.000000"
 preserveAspectRatio="xMidYMid meet">
<metadata>
Created by potrace 1.14, written by Peter Selinger 2001-2017
</metadata>
<g transform="translate(0.000000,700.000000) scale(0.100000,-0.100000)"
fill="#000000" stroke="none">
<path d="M0 3500 l0 -3500 3500 0 3500 0 0 3500 0 3500 -3500 0 -3500 0 0
-3500z m2606 790 c664 -1697 687 -1759 709 -1891 l5 -37 110 6 110 5 0 -152 0
-151 -520 0 -520 0 0 130 0 130 28 0 c51 0 101 21 128 53 26 30 26 35 21 122
-4 76 -13 112 -58 234 l-53 144 -415 -8 c-229 -4 -419 -9 -423 -11 -3 -2 -20
-46 -38 -98 -24 -74 -121 -325 -146 -381 -3 -7 40 -9 131 -7 l135 4 0 -156 0
-156 -412 2 -413 3 -3 131 -3 131 46 6 c104 15 172 78 242 226 54 115 66 146
498 1334 l349 958 135 -3 136 -3 221 -565z m2561 484 c358 -53 600 -202 723
-446 58 -116 75 -204 74 -383 0 -135 -3 -158 -27 -230 -108 -322 -402 -560
-780 -630 -114 -21 -289 -35 -439 -35 l-128 0 0 -253 c0 -140 -3 -295 -7 -346
l-6 -92 161 7 162 7 0 -152 0 -151 -572 2 -573 3 -3 128 -3 127 28 0 c54 0
144 28 170 51 40 38 63 93 73 177 6 44 11 475 13 1009 l2 933 -142 -7 -143 -6
0 145 c0 79 3 148 7 151 3 4 299 7 656 7 535 0 668 -3 754 -16z"/>
<path d="M2132 4135 c-6 -22 -22 -87 -36 -145 -23 -97 -80 -272 -219 -672
l-54 -158 323 0 323 0 -30 83 c-180 483 -230 636 -273 827 l-24 105 -10 -40z"/>
<path d="M4728 4506 c-134 -48 -138 -67 -138 -691 l0 -472 93 -7 c95 -7 251 5
322 25 75 21 175 80 220 132 52 60 100 155 122 245 24 96 23 343 -1 432 -51
188 -163 297 -341 335 -87 18 -227 19 -277 1z"/>
</g>
</svg>
