<svg width="32" height="32" viewBox="0 0 32 32" fill="none" xmlns="http://www.w3.org/2000/svg">
<path d="M12.7762 14.534C13.082 14.3125 13.2297 13.9469 13.2297 13.4441C13.2402 13.2051 13.191 12.9695 13.0855 12.7551C12.9906 12.5828 12.85 12.4387 12.6777 12.3367C12.4991 12.2284 12.3007 12.1567 12.0941 12.1258C11.8691 12.0836 11.6406 12.0625 11.4156 12.066H8.94414V14.868H11.6195C12.0801 14.8715 12.4703 14.759 12.7762 14.534ZM13.191 17.0652C12.8465 16.8016 12.3859 16.6715 11.8129 16.6715H8.93711V19.9762H11.7566C12.0203 19.9762 12.2629 19.9516 12.4984 19.9023C12.7213 19.8588 12.9337 19.7728 13.1242 19.6492C13.3035 19.5332 13.4477 19.375 13.5566 19.1711C13.6621 18.9672 13.7148 18.707 13.7148 18.3941C13.7148 17.7719 13.5391 17.3324 13.191 17.0652ZM16 0.25C7.30234 0.25 0.25 7.30234 0.25 16C0.25 24.6977 7.30234 31.75 16 31.75C24.6977 31.75 31.75 24.6977 31.75 16C31.75 7.30234 24.6977 0.25 16 0.25ZM19.041 10.3363H23.9066V11.5211H19.041V10.3363ZM16 20.1062C15.7724 20.5382 15.4474 20.9114 15.0508 21.1961C14.6359 21.4844 14.1754 21.6953 13.6867 21.8184C13.1755 21.9554 12.648 22.0228 12.1188 22.0188H6.29688V10.027H11.957C12.5301 10.027 13.0504 10.0797 13.525 10.1781C13.9961 10.2766 14.3969 10.4453 14.7344 10.6738C15.0684 10.9023 15.332 11.2082 15.5184 11.5879C15.7012 11.9641 15.7961 12.4352 15.7961 12.9941C15.7961 13.5988 15.659 14.098 15.3848 14.5023C15.107 14.9066 14.7063 15.2336 14.1613 15.4902C14.9031 15.7012 15.448 16.0773 15.8066 16.6047C16.1723 17.1391 16.3516 17.7789 16.3516 18.5312C16.3516 19.143 16.2355 19.6668 16 20.1062ZM25.8016 18.25H19.5297C19.5297 18.932 19.7652 19.5859 20.1203 19.9375C20.4789 20.2855 20.9922 20.4613 21.6637 20.4613C22.1488 20.4613 22.5602 20.3383 22.9117 20.0957C23.2598 19.8531 23.4707 19.5965 23.548 19.3293H25.6504C25.3129 20.3734 24.7996 21.1188 24.1035 21.5688C23.4145 22.0188 22.5707 22.2437 21.5898 22.2437C20.9043 22.2437 20.2891 22.1313 19.7371 21.9168C19.2062 21.7094 18.7281 21.393 18.3344 20.9852C17.9461 20.5664 17.6461 20.0738 17.452 19.5367C17.2375 18.9426 17.132 18.3168 17.1391 17.6875C17.1391 17.0371 17.248 16.4324 17.459 15.8699C17.8633 14.7766 18.7035 13.9012 19.7758 13.4477C20.3488 13.2086 20.9641 13.0891 21.5863 13.0961C22.3246 13.0961 22.9645 13.2367 23.5199 13.525C24.0547 13.8003 24.519 14.1948 24.877 14.6781C25.232 15.1598 25.4816 15.7082 25.6398 16.327C25.791 16.9352 25.8438 17.575 25.8016 18.25ZM21.5125 14.8891C21.1328 14.8891 20.8129 14.9559 20.5668 15.0859C20.3207 15.216 20.1168 15.3777 19.9621 15.5641C19.8148 15.744 19.7059 15.9522 19.6422 16.1758C19.5859 16.3621 19.5473 16.552 19.5332 16.7453H23.418C23.3617 16.1371 23.1508 15.6871 22.8695 15.3707C22.5742 15.0578 22.0996 14.8891 21.5125 14.8891Z" fill="black"/>
</svg>
