<svg width="30" height="30" viewBox="0 0 30 30" fill="none" xmlns="http://www.w3.org/2000/svg">
<path fill-rule="evenodd" clip-rule="evenodd" d="M8.95398 0.421252C10.518 0.349252 11.0167 0.333252 15.0007 0.333252C18.9846 0.333252 19.4833 0.350585 21.046 0.421252C22.6087 0.491919 23.6753 0.741252 24.6086 1.10259C25.586 1.47192 26.4726 2.04925 27.206 2.79592C27.9526 3.52792 28.5287 4.41325 28.8967 5.39192C29.2593 6.32525 29.5073 7.39192 29.5793 8.95192C29.6513 10.5186 29.6673 11.0173 29.6673 14.9999C29.6673 18.9839 29.65 19.4826 29.5793 21.0466C29.5086 22.6066 29.2593 23.6733 28.8967 24.6066C28.5286 25.5854 27.9517 26.4722 27.206 27.2052C26.4726 27.9519 25.586 28.5279 24.6086 28.8959C23.6753 29.2586 22.6086 29.5066 21.0486 29.5786C19.4833 29.6506 18.9846 29.6666 15.0007 29.6666C11.0167 29.6666 10.518 29.6493 8.95398 29.5786C7.39398 29.5079 6.32732 29.2586 5.39398 28.8959C4.41521 28.5279 3.52841 27.9509 2.79532 27.2052C2.04916 26.4728 1.47174 25.5864 1.10332 24.6079C0.741984 23.6746 0.493984 22.6079 0.421984 21.0479C0.349984 19.4813 0.333984 18.9826 0.333984 14.9999C0.333984 11.0159 0.351318 10.5173 0.421984 8.95459C0.492651 7.39192 0.741984 6.32525 1.10332 5.39192C1.47228 4.41336 2.05014 3.527 2.79665 2.79458C3.5287 2.04859 4.41461 1.47118 5.39265 1.10259C6.32598 0.741252 7.39265 0.493252 8.95265 0.421252H8.95398ZM20.9273 3.06125C19.3806 2.99059 18.9167 2.97592 15.0007 2.97592C11.0847 2.97592 10.6207 2.99059 9.07398 3.06125C7.64332 3.12659 6.86732 3.36525 6.34998 3.56659C5.66598 3.83325 5.17665 4.14925 4.66332 4.66259C4.17671 5.13599 3.80222 5.71229 3.56732 6.34925C3.36598 6.86659 3.12732 7.64258 3.06198 9.07325C2.99132 10.6199 2.97665 11.0839 2.97665 14.9999C2.97665 18.9159 2.99132 19.3799 3.06198 20.9266C3.12732 22.3573 3.36598 23.1333 3.56732 23.6506C3.80198 24.2866 4.17665 24.8639 4.66332 25.3373C5.13665 25.8239 5.71398 26.1986 6.34998 26.4333C6.86732 26.6346 7.64332 26.8733 9.07398 26.9386C10.6207 27.0093 11.0833 27.0239 15.0007 27.0239C18.918 27.0239 19.3806 27.0093 20.9273 26.9386C22.358 26.8733 23.134 26.6346 23.6513 26.4333C24.3353 26.1666 24.8246 25.8506 25.338 25.3373C25.8246 24.8639 26.1993 24.2866 26.434 23.6506C26.6353 23.1333 26.874 22.3573 26.9393 20.9266C27.01 19.3799 27.0246 18.9159 27.0246 14.9999C27.0246 11.0839 27.01 10.6199 26.9393 9.07325C26.874 7.64258 26.6353 6.86659 26.434 6.34925C26.1673 5.66525 25.8513 5.17592 25.338 4.66259C24.8646 4.17601 24.2883 3.80153 23.6513 3.56659C23.134 3.36525 22.358 3.12659 20.9273 3.06125ZM13.1273 19.5212C14.1735 19.9568 15.3385 20.0155 16.4232 19.6875C17.508 19.3596 18.4452 18.6651 19.0748 17.7229C19.7044 16.7807 19.9874 15.6491 19.8754 14.5214C19.7634 13.3937 19.2633 12.3399 18.4606 11.5399C17.949 11.0286 17.3303 10.637 16.6491 10.3934C15.9679 10.1499 15.2412 10.0604 14.5213 10.1314C13.8014 10.2024 13.1062 10.4322 12.4857 10.8041C11.8653 11.176 11.335 11.6809 10.9331 12.2824C10.5311 12.8839 10.2676 13.567 10.1613 14.2825C10.0551 14.9981 10.1089 15.7283 10.3187 16.4206C10.5286 17.1129 10.8893 17.7501 11.3749 18.2862C11.8606 18.8224 12.4591 19.2442 13.1273 19.5212ZM9.66998 9.66925C10.37 8.96922 11.2011 8.41392 12.1157 8.03507C13.0304 7.65621 14.0107 7.46122 15.0007 7.46122C15.9906 7.46122 16.9709 7.65621 17.8856 8.03507C18.8002 8.41392 19.6313 8.96922 20.3313 9.66925C21.0313 10.3693 21.5866 11.2003 21.9655 12.115C22.3444 13.0296 22.5394 14.0099 22.5394 14.9999C22.5394 15.9899 22.3444 16.9702 21.9655 17.8849C21.5866 18.7995 21.0313 19.6306 20.3313 20.3306C18.9175 21.7444 17 22.5386 15.0007 22.5386C13.0013 22.5386 11.0838 21.7444 9.66998 20.3306C8.2562 18.9168 7.46195 16.9993 7.46195 14.9999C7.46195 13.0005 8.2562 11.083 9.66998 9.66925ZM24.2113 8.58392C24.3848 8.42028 24.5237 8.22349 24.6197 8.00522C24.7158 7.78694 24.7671 7.55161 24.7705 7.31316C24.774 7.07471 24.7296 6.83798 24.64 6.617C24.5503 6.39602 24.4172 6.19527 24.2486 6.02664C24.08 5.85801 23.8792 5.72493 23.6582 5.63528C23.4373 5.54562 23.2005 5.50122 22.9621 5.5047C22.7236 5.50817 22.4883 5.55946 22.27 5.65551C22.0517 5.75157 21.855 5.89045 21.6913 6.06392C21.3731 6.40129 21.1988 6.84941 21.2056 7.31316C21.2123 7.7769 21.3996 8.21976 21.7275 8.54771C22.0555 8.87566 22.4983 9.06289 22.9621 9.06965C23.4258 9.07641 23.8739 8.90217 24.2113 8.58392Z" fill="black"/>
</svg>
